<svg xmlns="http://www.w3.org/2000/svg" viewBox="0 86.44999694824219 108.80000305175781 27.400001525878906" data-asc="0.9">
    <g fill="#000000">
        <g fill="#000000" transform="translate(0, 0)">
            <path d=""/></g><g fill="#000000" transform="translate(0, 66.95)">
            <path d="M0.20 46.20Q0 46.20 0 46Q0 45.60 0.93 44.30Q1.85 43 3.28 41.30Q4.70 39.60 6.18 37.90Q7.65 36.20 8.82 34.92Q10 33.65 10.35 33.25Q9.15 33.40 7.68 33.75Q6.20 34.10 4.88 34.75Q3.55 35.40 2.85 36.50Q2.45 37.05 2.45 37.75Q2.45 38.45 2.83 38.75Q3.20 39.05 3.20 39.30Q3.20 39.40 2.90 39.40Q1.95 39.40 1.38 38.42Q0.80 37.45 0.80 36.60Q0.80 36.05 0.95 35.60Q1.50 33.90 2.85 32.88Q4.20 31.85 6.00 31.32Q7.80 30.80 9.63 30.65Q11.45 30.50 12.95 30.50Q15.40 28 18 25.55Q20.60 23.10 23.50 21.15Q24.55 20.45 25.80 20Q27.05 19.55 28.35 19.55Q29.75 19.55 30.80 20.25Q31.85 20.95 31.85 22.50Q31.85 23.65 31.32 24.77Q30.80 25.90 30.20 26.85Q29.85 27.40 29.03 28.80Q28.20 30.20 27.10 32.05Q26 33.90 24.85 35.92Q23.70 37.95 22.73 39.77Q21.75 41.60 21.15 42.92Q20.55 44.25 20.55 44.75Q20.55 44.90 20.60 45Q20 45.30 19.20 45.30Q18.25 45.30 18.02 44.75Q17.80 44.20 17.80 43.35Q17.80 42.60 18.27 41.42Q18.75 40.25 19.43 38.98Q20.10 37.70 20.78 36.55Q21.45 35.40 21.90 34.65Q21.55 34.15 20.68 33.83Q19.80 33.50 18.68 33.30Q17.55 33.10 16.55 33Q15.55 32.90 15 32.90Q14.20 32.90 13.40 32.95Q12.60 33 11.80 33.10Q9.90 35.10 8.05 37.20Q6.20 39.30 4.45 41.45Q3.60 42.45 2.75 43.55Q1.90 44.65 1 45.65Q0.85 45.80 0.65 46Q0.45 46.20 0.20 46.20M22.30 34Q22.65 33.40 23.38 32.17Q24.10 30.95 24.98 29.48Q25.85 28 26.65 26.52Q27.45 25.05 28.03 23.88Q28.60 22.70 28.70 22.20Q28.95 21.20 28.30 20.95Q27.65 20.70 27.15 20.70Q26.35 20.70 25.40 21.10Q24.45 21.50 23.80 21.95Q21.20 23.80 18.80 26.02Q16.40 28.25 14.20 30.55Q15 30.60 16.27 30.77Q17.55 30.95 18.88 31.32Q20.20 31.70 21.18 32.35Q22.15 33 22.30 34ZM33.80 46.15Q33.10 46.15 31.90 46.10Q30.70 46.05 29.48 45.80Q28.25 45.55 27.40 44.95Q26.55 44.35 26.55 43.30Q26.55 43.05 26.63 42.77Q26.70 42.50 26.75 42.25Q27.25 40.85 28.43 38.88Q29.60 36.90 31.15 34.70Q32.70 32.50 34.38 30.32Q36.05 28.15 37.55 26.30Q39.05 24.45 40.05 23.25Q40.75 22.50 41.48 21.57Q42.20 20.65 42.95 20Q43.50 19.50 44.25 19.50Q44.35 19.50 44.52 19.52Q44.70 19.55 44.70 19.70Q44.70 19.75 44.65 19.80Q44.60 19.85 44.60 19.85Q43.30 21.40 42.08 22.97Q40.85 24.55 39.70 26.15Q39.05 27 37.90 28.60Q36.75 30.20 35.42 32.20Q34.10 34.20 32.88 36.17Q31.65 38.15 30.88 39.80Q30.10 41.45 30.10 42.40Q30.10 43.50 30.93 44.02Q31.75 44.55 32.88 44.70Q34 44.85 34.80 44.85Q36.55 44.85 39.02 44.40Q41.50 43.95 43.90 43.25Q46.30 42.55 47.90 41.80Q48.10 41.70 48.20 41.70Q48.60 41.70 48.60 42.20Q48.60 43.20 47.58 43.80Q46.55 44.40 45.75 44.65Q44.70 44.95 43.13 45.23Q41.55 45.50 39.83 45.70Q38.10 45.90 36.50 46.02Q34.90 46.15 33.80 46.15ZM61.05 46.90Q58.85 46.90 56.48 46.35Q54.10 45.80 52.45 44.25Q52.35 44.15 52.35 44.05Q52.35 43.85 52.60 43.85L52.80 43.90Q54.30 44.40 55.85 44.60Q57.40 44.80 58.95 44.80Q60.60 44.80 62.80 44.27Q65 43.75 67.08 42.70Q69.15 41.65 70.50 40.10Q71.85 38.55 71.85 36.50Q71.85 34.95 70.80 34.17Q69.75 33.40 68.33 33.10Q66.90 32.80 65.70 32.80Q64.40 32.80 62.65 33.08Q60.90 33.35 59.30 33.98Q57.70 34.60 56.80 35.65Q55.05 37.80 53.78 40.27Q52.50 42.75 51.05 45.10Q50.85 45.60 50.45 45.60Q50.20 45.60 50.20 45.30Q50.20 45.10 50.25 45.05Q50.65 43.70 51.33 42.42Q52.00 41.15 52.65 39.95Q52.90 39.50 53.63 38.27Q54.35 37.05 55.35 35.38Q56.35 33.70 57.48 31.92Q58.60 30.15 59.60 28.60Q60.60 27.05 61.33 26.10Q62.05 25.15 62.25 25.15Q62.50 25.15 63.08 25.32Q63.65 25.50 64.20 25.72Q64.75 25.95 64.90 26.15Q63.40 27.85 61.90 29.52Q60.40 31.20 58.95 32.90Q61.30 32.60 63.85 31.88Q66.40 31.15 68.55 30.20Q69.30 29.85 70.35 29.23Q71.40 28.60 72.45 27.77Q73.50 26.95 74.20 26.05Q74.90 25.15 74.90 24.20Q74.90 23.25 74.13 22.80Q73.35 22.35 72.38 22.22Q71.40 22.10 70.70 22.10Q67.90 22.10 65.25 22.82Q62.60 23.55 59.95 24.40Q59.75 24.45 59.55 24.50Q59.35 24.55 59.15 24.55Q58.55 24.55 58.25 24.15Q57.95 23.75 57.95 23.20Q57.95 21.95 59.00 21.50Q59.35 21.35 59.73 21.27Q60.10 21.20 60.45 21.15Q62.85 20.55 65.33 20.05Q67.80 19.55 70.25 19.55Q71.60 19.55 73.23 19.88Q74.85 20.20 76.03 21.10Q77.20 22 77.20 23.75Q77.20 25.35 76 26.68Q74.80 28 73 29Q71.20 30 69.43 30.70Q67.65 31.40 66.43 31.75Q65.20 32.10 65.20 32.15L65.35 32.15Q65.75 32.15 66.18 32.13Q66.60 32.10 67 32.10Q68.20 32.10 69.63 32.33Q71.05 32.55 72.33 33.10Q73.60 33.65 74.43 34.63Q75.25 35.60 75.25 37.15Q75.25 38.20 74.85 39.17Q74.45 40.15 73.85 41Q72.45 43 70.35 44.30Q68.25 45.60 65.85 46.25Q63.45 46.90 61.05 46.90ZM77.15 46.20Q76.95 46.20 76.95 46Q76.95 45.60 77.88 44.30Q78.80 43 80.23 41.30Q81.65 39.60 83.13 37.90Q84.60 36.20 85.78 34.92Q86.95 33.65 87.30 33.25Q86.10 33.40 84.63 33.75Q83.15 34.10 81.83 34.75Q80.50 35.40 79.80 36.50Q79.40 37.05 79.40 37.75Q79.40 38.45 79.78 38.75Q80.15 39.05 80.15 39.30Q80.15 39.40 79.85 39.40Q78.90 39.40 78.33 38.42Q77.75 37.45 77.75 36.60Q77.75 36.05 77.90 35.60Q78.45 33.90 79.80 32.88Q81.15 31.85 82.95 31.32Q84.75 30.80 86.58 30.65Q88.40 30.50 89.90 30.50Q92.35 28 94.95 25.55Q97.55 23.10 100.45 21.15Q101.50 20.45 102.75 20Q104 19.55 105.30 19.55Q106.70 19.55 107.75 20.25Q108.80 20.95 108.80 22.50Q108.80 23.65 108.28 24.77Q107.75 25.90 107.15 26.85Q106.80 27.40 105.98 28.80Q105.15 30.20 104.05 32.05Q102.95 33.90 101.80 35.92Q100.65 37.95 99.68 39.77Q98.70 41.60 98.10 42.92Q97.50 44.25 97.50 44.75Q97.50 44.90 97.55 45Q96.95 45.30 96.15 45.30Q95.20 45.30 94.98 44.75Q94.75 44.20 94.75 43.35Q94.75 42.60 95.23 41.42Q95.70 40.25 96.38 38.98Q97.05 37.70 97.73 36.55Q98.40 35.40 98.85 34.65Q98.50 34.15 97.63 33.83Q96.75 33.50 95.63 33.30Q94.50 33.10 93.50 33Q92.50 32.90 91.95 32.90Q91.15 32.90 90.35 32.95Q89.55 33 88.75 33.10Q86.85 35.10 85 37.20Q83.15 39.30 81.40 41.45Q80.55 42.45 79.70 43.55Q78.85 44.65 77.95 45.65Q77.80 45.80 77.60 46Q77.40 46.20 77.15 46.20M99.25 34Q99.60 33.40 100.33 32.17Q101.05 30.95 101.93 29.48Q102.80 28 103.60 26.52Q104.40 25.05 104.98 23.88Q105.55 22.70 105.65 22.20Q105.90 21.20 105.25 20.95Q104.60 20.70 104.10 20.70Q103.30 20.70 102.35 21.10Q101.40 21.50 100.75 21.95Q98.15 23.80 95.75 26.02Q93.35 28.25 91.15 30.55Q91.95 30.60 93.23 30.77Q94.50 30.95 95.83 31.32Q97.15 31.70 98.13 32.35Q99.10 33 99.25 34Z"/>
        </g>
    </g>
</svg>